# xmcd
#
# Track frame offsets:
#	150
#	14913
#	28946
#	43486
#	56460
#	72011
#	85710
#	101567
#	114548
#	128467
#	143046
#	157426
#	171095
#	184169
#	200448
#	215290
#	230037
#	244440
#	256103
#	277111
#
# Disc length: 3884 seconds
#
# Revision: 0
# Processed by: cddbd v1.5.2PL0 Copyright (c) Steve Scherf et al.
# Submitted via: EZCDAudioConverter 7.1.0.1
#
DISCID=2f0f2a14
DTITLE=Nu Country Traxx Volume 237 CAN
DYEAR=2019
DGENRE=country
TTITLE0=Eric Church - Some Of It
TTITLE1=Dylan Scott - Nothing To Do Town
TTITLE2=Kane Brown - Good As You
TTITLE3=Toby Keith - Don't Let The Old Man In
TTITLE4=Ashley McBryde - Girl Goin' Nowhere
TTITLE5=Granger Smith - You're In It [Remix]
TTITLE6=Matt Stell - Prayed For You
TTITLE7=Walker Hayes - 90's Country
TTITLE8=Garth Brooks - Stronger Than Me [Live From The CMAs]
TTITLE9=Kira Isabella - Danger Danger
TTITLE10=Nick Brennan - Not Goin' There Again
TTITLE11=Dan Davidson - Cinderella
TTITLE12=Jess Moskaluke - Save Some Of That Whiskey
TTITLE13=Genevieve Fisher - Nothin' With You
TTITLE14=Codie Prevost - In My Book
TTITLE15=Brody Siebert - Goodbye Drunk
TTITLE16=Brad Battle - More
TTITLE17=Don Amero - Give It To You
TTITLE18=Black Mountain Whiskey Rebellion - Holy Smoke
TTITLE19=Alee - Don't Make Me Miss You
EXTD=
EXTT0=
EXTT1=
EXTT2=
EXTT3=
EXTT4=
EXTT5=
EXTT6=
EXTT7=
EXTT8=
EXTT9=
EXTT10=
EXTT11=
EXTT12=
EXTT13=
EXTT14=
EXTT15=
EXTT16=
EXTT17=
EXTT18=
EXTT19=
PLAYORDER=
